<!-- icon666.com - MILLIONS vector ICONS FREE --><svg id="Layer_1" viewBox="0 0 100 100" xmlns="http://www.w3.org/2000/svg" data-name="Layer 1"><path d="m69.708 22.468a19.7 19.7 0 0 0 -39.394 0v16.139h-4.475a1.5 1.5 0 0 0 -1.5 1.5v18.273a25.691 25.691 0 0 0 24.161 25.614v4.685h-8.12a4.27 4.27 0 1 0 0 8.539h19.24a4.27 4.27 0 1 0 0-8.539h-8.12v-4.685a25.691 25.691 0 0 0 24.161-25.614v-18.273a1.5 1.5 0 0 0 -1.5-1.5h-4.453zm-8.818 70.481a1.271 1.271 0 0 1 -1.27 1.269h-19.24a1.27 1.27 0 1 1 0-2.539h19.24a1.272 1.272 0 0 1 1.27 1.27zm-10.89-87.167a16.692 16.692 0 0 1 16.708 16.686v6.2h-6.82a1.5 1.5 0 0 0 0 3h6.82v1.97h-6.82a1.5 1.5 0 0 0 0 3h6.82v1.97h-6.82a1.5 1.5 0 0 0 0 3h6.82v1.97h-6.82a1.5 1.5 0 0 0 0 3h6.82v1.969h-6.82a1.5 1.5 0 0 0 0 3h6.82v6.222a16.7 16.7 0 0 1 -33.394 0v-6.223h6.82a1.5 1.5 0 0 0 0-3h-6.82v-1.969h6.82a1.5 1.5 0 0 0 0-3h-6.82v-1.97h6.82a1.5 1.5 0 0 0 0-3h-6.82v-1.97h6.82a1.5 1.5 0 0 0 0-3h-6.82v-1.97h6.82a1.5 1.5 0 0 0 0-3h-6.82v-6.2a16.7 16.7 0 0 1 16.686-16.685zm22.661 52.6a22.661 22.661 0 0 1 -45.322 0v-16.775h2.975v16.161a19.7 19.7 0 0 0 39.394 0v-16.161h2.953z"></path></svg>